<svg width="40" height="39" viewBox="0 0 40 39" fill="none" xmlns="http://www.w3.org/2000/svg">
<path d="M6.66666 11.7222H33.3333" stroke="white" stroke-width="1.75" stroke-linecap="round" stroke-linejoin="round"/>
<path d="M16.6667 17.9444V27.2778" stroke="white" stroke-width="1.75" stroke-linecap="round" stroke-linejoin="round"/>
<path d="M23.3333 17.9444V27.2778" stroke="white" stroke-width="1.75" stroke-linecap="round" stroke-linejoin="round"/>
<path d="M8.33334 11.7222L10 30.3889C10 31.214 10.3512 32.0053 10.9763 32.5888C11.6014 33.1722 12.4493 33.5 13.3333 33.5H26.6667C27.5507 33.5 28.3986 33.1722 29.0237 32.5888C29.6488 32.0053 30 31.214 30 30.3889L31.6667 11.7222" stroke="white" stroke-width="1.75" stroke-linecap="round" stroke-linejoin="round"/>
<path d="M15 11.7222V7.05556C15 6.643 15.1756 6.24733 15.4882 5.95561C15.8007 5.66389 16.2246 5.5 16.6667 5.5H23.3333C23.7754 5.5 24.1993 5.66389 24.5118 5.95561C24.8244 6.24733 25 6.643 25 7.05556V11.7222" stroke="white" stroke-width="1.75" stroke-linecap="round" stroke-linejoin="round"/>
</svg>
